<svg width="360" height="128" xmlns="http://www.w3.org/2000/svg" xmlns:undefined="http://sodipodi.sourceforge.net/DTD/sodipodi-0.dtd" version="1.1">
 <defs id="defs1131">
  <rect id="rect8686" height="103.0423" width="434.20342" y="16.20162" x="-36.93969"/>
 </defs>
 <g id="g1125" fill-rule="evenodd" fill="none">
  <g transform="matrix(0.14366844,0,0,0.15566738,0.46431917,18.481188)" id="svg_2">
   <path d="m18.99996,22.00002l138.1147,103.52594l179.99937,-1.1974c0,0 40.20348,2.80234 40.20348,47.36823c0,44.56595 -34.10259,47.77268 -34.10259,47.77268l-74.3131,1.79771l101.84018,95.9939c0,0 121.21415,-24.79461 121.21415,-145.18828c0,-120.39366 -138.06829,-148.03174 -138.06829,-148.03174l-334.88789,-2.04103l-0.00001,-0.00001z" fill="#288584" id="path19"/>
   <g id="g1496" transform="matrix(2.38521,0,0,2.22707,59.6237,361.77)">
    <g id="Layer_1" transform="matrix(0.729101,0,0,0.704026,155.673,-0.424243)">
     <title id="title2141">ProduApps</title>
     <path strokeWidth="0" id="svg_1" d="m-151.87366,-16.0992l-85,-105l80,0l90,105l-90,100l-80,0l85,-100z" fill="#2db696"/>
    </g>
   </g>
  </g>
  <g font-size="64px" font-family="'PublicSans'" fill="#223230" stroke-width="0.65192" id="text13546" transform="scale(0.96849533,1.0325295)" aria-label="roduApps">
   <path id="path36263" d="m80.23847,91.14117l0,-33.088l7.456,0l0,7.168q0.8,-2.464 2.272,-4.192q1.504,-1.76 3.52,-2.688q2.016,-0.928 4.384,-0.928q0.576,0 1.12,0.064q0.544,0.064 0.8,0.224l0,7.456q-0.352,-0.16 -0.928,-0.224q-0.544,-0.064 -0.96,-0.064q-2.4,-0.192 -4.256,0.192q-1.824,0.384 -3.104,1.312q-1.248,0.896 -1.888,2.304q-0.64,1.376 -0.64,3.232l0,19.232l-7.776,0z"/>
   <path id="path36265" d="m119.15271,91.78117q-4.736,0 -8.256,-2.016q-3.52,-2.048 -5.472,-5.856q-1.92,-3.808 -1.92,-9.152q0,-5.184 1.856,-9.088q1.888,-3.904 5.408,-6.08q3.52,-2.176 8.416,-2.176q4.736,0 8.224,2.08q3.488,2.08 5.376,5.952q1.92,3.872 1.92,9.312q0,5.024 -1.824,8.864q-1.792,3.808 -5.28,5.984q-3.456,2.176 -8.448,2.176zm0.032,-5.92q2.688,0 4.416,-1.472q1.76,-1.472 2.592,-4.032q0.864,-2.56 0.864,-5.824q0,-3.04 -0.768,-5.6q-0.736,-2.56 -2.496,-4.096q-1.728,-1.568 -4.608,-1.568q-2.72,0 -4.512,1.44q-1.76,1.408 -2.656,3.968q-0.864,2.528 -0.864,5.856q0,3.008 0.768,5.6q0.8,2.56 2.56,4.16q1.76,1.568 4.704,1.568z"/>
   <path id="path36267" d="m153.88896,91.78117q-6.56,0 -10.304,-4.512q-3.744,-4.512 -3.744,-12.832q0,-5.184 1.504,-8.992q1.536,-3.84 4.48,-5.92q2.976,-2.112 7.36,-2.112q2.048,0 3.712,0.512q1.696,0.48 3.008,1.28q1.312,0.8 2.208,1.76q0.928,0.96 1.44,1.92l0,-19.296l7.808,0l0,47.552l-5.76,0l-0.864,-6.784q-0.384,1.184 -1.152,2.496q-0.736,1.28 -2.016,2.4q-1.248,1.12 -3.136,1.824q-1.888,0.704 -4.544,0.704zm1.6,-5.728q4.192,0 6.112,-2.72q1.952,-2.752 1.952,-9.088q-0.032,-3.616 -0.896,-6.08q-0.832,-2.464 -2.592,-3.712q-1.728,-1.248 -4.48,-1.248q-3.52,0 -5.792,2.592q-2.272,2.592 -2.272,8.448q0,5.824 2.08,8.832q2.08,2.976 5.888,2.976z"/>
   <path id="path36269" d="m192.49721,91.78117q-2.432,0 -4.704,-0.704q-2.24,-0.736 -4.032,-2.112q-1.792,-1.408 -2.848,-3.456q-1.056,-2.048 -1.056,-4.768l0,-22.688l7.808,0l0,21.792q0,2.688 1.696,4.416q1.728,1.728 5.184,1.728q3.136,0 5.024,-1.632q1.888,-1.664 1.888,-4.768l0,-21.536l7.744,0l0,33.088l-5.984,0l-0.864,-6.464q-0.608,2.72 -2.144,4.288q-1.504,1.536 -3.552,2.176q-2.016,0.64 -4.16,0.64z"/>
   <path id="path36271" d="m215.42554,91.14117l16.64,-46.272l8.416,0l16.608,46.272l-7.808,0l-4.128,-11.616l-17.664,0l-4.224,11.616l-7.84,0zm13.856,-18.528l13.952,0l-6.944,-20.16l-7.008,20.16z"/>
   <path id="path36273" d="m263.8259,101.44517l0,-43.392l7.776,0l0.064,5.216q0.64,-1.088 1.632,-2.144q1.024,-1.056 2.336,-1.888q1.344,-0.832 2.976,-1.312q1.632,-0.512 3.584,-0.512q3.808,0 6.752,1.824q2.944,1.792 4.608,5.536q1.696,3.744 1.696,9.472q0,5.856 -1.728,9.76q-1.728,3.904 -4.832,5.856q-3.104,1.92 -7.2,1.92q-1.888,0 -3.456,-0.512q-1.536,-0.512 -2.752,-1.408q-1.216,-0.896 -2.144,-1.952q-0.896,-1.056 -1.504,-2.208l0,15.744l-7.808,0zm15.936,-15.488q3.52,0 5.824,-2.784q2.304,-2.816 2.304,-8.8q0,-5.184 -2.176,-8.16q-2.144,-3.008 -5.952,-3.008q-4.096,0 -6.144,3.168q-2.048,3.136 -2.048,8q0,3.136 0.896,5.792q0.928,2.624 2.72,4.224q1.824,1.568 4.576,1.568z"/>
   <path id="path36275" d="m302.3062,101.44517l0,-43.392l7.776,0l0.064,5.216q0.64,-1.088 1.632,-2.144q1.024,-1.056 2.336,-1.888q1.344,-0.832 2.976,-1.312q1.632,-0.512 3.584,-0.512q3.808,0 6.752,1.824q2.944,1.792 4.608,5.536q1.696,3.744 1.696,9.472q0,5.856 -1.728,9.76q-1.728,3.904 -4.832,5.856q-3.104,1.92 -7.2,1.92q-1.888,0 -3.456,-0.512q-1.536,-0.512 -2.752,-1.408q-1.216,-0.896 -2.144,-1.952q-0.896,-1.056 -1.504,-2.208l0,15.744l-7.808,0zm15.936,-15.488q3.52,0 5.824,-2.784q2.304,-2.816 2.304,-8.8q0,-5.184 -2.176,-8.16q-2.144,-3.008 -5.952,-3.008q-4.096,0 -6.144,3.168q-2.048,3.136 -2.048,8q0,3.136 0.896,5.792q0.928,2.624 2.72,4.224q1.824,1.568 4.576,1.568z"/>
   <path id="path36277" d="m353.08447,91.78117q-3.456,0 -6.56,-1.088q-3.072,-1.12 -5.184,-3.488q-2.08,-2.368 -2.624,-6.112l6.848,0q0.448,1.824 1.568,2.976q1.152,1.152 2.72,1.696q1.568,0.512 3.2,0.512q2.976,0 4.8,-1.024q1.856,-1.024 1.856,-3.168q0,-1.568 -1.024,-2.496q-1.024,-0.928 -3.264,-1.408l-6.304,-1.44q-4.192,-0.928 -6.752,-3.072q-2.528,-2.144 -2.56,-6.048q-0.032,-2.944 1.472,-5.248q1.504,-2.304 4.48,-3.616q2.976,-1.344 7.36,-1.344q5.792,0 9.28,2.592q3.488,2.56 3.584,7.328l-6.624,0q-0.352,-2.144 -2.016,-3.328q-1.664,-1.216 -4.32,-1.216q-2.752,0 -4.512,1.056q-1.76,1.056 -1.76,3.232q0,1.504 1.344,2.368q1.344,0.864 4.032,1.472l5.952,1.44q2.56,0.64 4.192,1.728q1.632,1.088 2.56,2.4q0.928,1.28 1.28,2.656q0.384,1.344 0.384,2.496q0,3.2 -1.664,5.472q-1.632,2.24 -4.64,3.456q-3.008,1.216 -7.104,1.216z"/>
  </g>
 </g>
</svg>